<svg version="1.1" id="Layer_1" xmlns="http://www.w3.org/2000/svg" xmlns:xlink="http://www.w3.org/1999/xlink" x="0px" y="0px"
	 width="100%" viewBox="0 0 1024 1024" enable-background="new 0 0 1024 1024" xml:space="preserve">
<path fill="#000000" opacity="1.000000" stroke="none" 
	d="
M64.444183,458.568146 
	C66.818359,436.255188 71.438324,414.829590 77.383156,393.709137 
	C93.553596,336.259796 119.993126,283.899506 156.593262,236.790634 
	C187.606445,196.872879 224.181595,162.810303 266.383026,134.891159 
	C313.505920,103.716133 365.161285,83.559868 420.210907,71.600487 
	C454.846130,64.076073 489.868713,60.900089 525.261597,61.968895 
	C579.301270,63.600800 631.484070,74.421799 681.653442,94.570633 
	C760.990479,126.433640 825.758728,177.265228 876.424072,245.932053 
	C913.989502,296.844666 939.519836,353.471344 953.690674,415.121887 
	C957.853333,433.231598 960.806458,451.575226 962.539185,470.142822 
	C963.854065,484.233856 965.271484,498.322510 965.180969,512.445374 
	C965.009277,539.241760 962.114319,565.810059 957.682068,592.258972 
	C950.074890,637.653259 935.090881,680.495544 913.971375,721.252136 
	C886.485107,774.295349 849.240051,819.620789 804.291626,858.747192 
	C769.600037,888.945068 731.164062,913.310242 688.953064,931.565491 
	C658.752258,944.626648 627.312683,953.549438 594.919617,959.529175 
	C561.991577,965.607605 528.826660,967.289062 495.528687,966.137573 
	C459.674377,964.897705 424.544708,958.591614 390.041077,948.688599 
	C299.476074,922.695251 225.192123,872.105530 164.912537,800.203552 
	C118.771286,745.165955 88.512878,682.243042 72.025940,612.589966 
	C66.898605,590.928345 64.273926,568.823547 62.520718,546.598877 
	C60.894196,525.980225 60.325085,505.390503 61.757008,484.768677 
	C62.354504,476.163849 63.470161,467.594971 64.444183,458.568146 
M454.728729,932.625244 
	C466.775208,933.968811 478.800903,936.166443 490.872925,936.460144 
	C509.999603,936.925354 529.161804,937.465088 548.305664,935.783203 
	C568.195068,934.035767 587.948486,931.430847 607.443054,927.189453 
	C667.824280,914.052551 721.587952,886.604492 769.876831,848.834778 
	C814.074768,814.264771 850.893799,772.699341 878.871887,723.746521 
	C897.203552,691.671997 912.231995,658.165161 921.480652,622.274170 
	C927.833191,597.622192 931.569580,572.554138 933.884705,547.188599 
	C936.195374,521.871399 935.683777,496.610413 933.425232,471.422180 
	C931.061768,445.063660 925.532959,419.225922 917.593567,393.924988 
	C904.697754,352.829437 887.118347,313.876678 862.793457,278.311768 
	C805.222534,194.138290 728.110840,136.457214 629.696411,107.966530 
	C600.829346,99.609619 571.405090,94.440414 541.498108,92.622704 
	C524.429993,91.585312 507.288818,91.094299 490.098175,92.152138 
	C470.807587,93.339188 451.574585,94.827766 432.710541,98.911957 
	C383.055481,109.662605 335.912354,126.877060 292.582855,153.953247 
	C265.759277,170.715057 240.676636,189.642288 218.305664,211.968872 
	C186.863846,243.348328 160.653961,278.560760 139.785156,317.960510 
	C107.856667,378.240692 91.184898,442.211212 90.390144,510.342010 
	C90.135681,532.156128 92.282661,553.823547 95.192688,575.431824 
	C99.183151,605.062866 106.502289,633.907593 117.304993,661.689148 
	C143.447067,728.919495 183.802826,786.200500 238.549210,833.445435 
	C284.417755,873.028870 336.310059,901.292480 394.076813,919.085876 
	C413.656982,925.116943 433.687653,929.120789 454.728729,932.625244 
z"/>
<path fill="#000000" opacity="1.000000" stroke="none" 
	d="
M286.508484,749.471802 
	C277.303162,738.009888 266.623840,728.365112 257.400085,717.402588 
	C248.186111,706.451721 242.559937,694.150146 243.689316,679.463623 
	C244.174911,673.148804 245.699692,667.002014 247.297058,660.901855 
	C248.271530,657.180420 247.241638,654.876038 243.717545,653.347839 
	C239.289841,651.427856 234.858810,649.465698 230.618500,647.171875 
	C208.964478,635.458313 197.753113,616.602600 194.732574,592.754028 
	C192.856003,577.937683 190.899246,563.131775 189.042831,548.319336 
	C186.760727,530.110229 193.646805,514.354370 205.418976,500.684998 
	C208.119858,497.548889 211.375214,494.858368 214.560638,492.183350 
	C216.494736,490.559174 216.671631,489.037628 215.407257,487.019318 
	C212.931152,483.066956 210.638367,478.994995 208.056580,475.114319 
	C194.310181,454.451965 194.573120,432.721558 204.085510,410.867706 
	C210.520599,396.083740 218.876953,382.187622 225.848633,367.603485 
	C231.985626,354.765442 243.165131,346.696869 256.301941,341.547211 
	C263.425842,338.754669 270.703217,336.308350 278.403290,335.657013 
	C281.966187,335.355652 282.876801,333.521210 282.412598,330.273407 
	C278.407867,302.252869 287.900024,279.935822 310.861359,263.387085 
	C321.944305,255.399384 332.983490,247.344910 344.222748,239.581619 
	C362.596985,226.890015 382.521393,227.008102 402.957855,233.233902 
	C407.874268,234.731644 412.523376,237.089111 417.343506,238.924942 
	C423.644165,241.324646 425.351044,240.301849 427.756866,234.126785 
	C438.109833,207.553329 457.425842,191.669785 485.792206,188.768082 
	C507.101318,186.588287 528.742859,185.293350 549.783936,191.322922 
	C571.211609,197.463287 586.531982,210.946548 595.263611,231.596024 
	C600.880981,244.880722 598.696838,242.856674 610.966797,238.158875 
	C621.141113,234.263428 631.344238,230.546143 642.187500,230.064301 
	C652.909790,229.587845 663.726685,231.398117 672.873962,237.229599 
	C689.293762,247.697266 705.874512,258.125946 721.105774,270.189789 
	C739.814697,285.008087 747.990540,305.254364 745.473572,329.344269 
	C744.764893,336.126801 744.674683,336.179626 751.568176,337.772858 
	C760.350708,339.802673 768.940735,342.302216 776.910278,346.674255 
	C786.829346,352.115784 794.949097,359.517151 799.690247,369.781494 
	C807.026489,385.664062 816.592834,400.331604 823.698608,416.381042 
	C833.048828,437.499908 830.373169,457.143890 819.806824,476.607727 
	C817.741150,480.412842 815.677185,484.236664 813.314758,487.857727 
	C811.134033,491.200409 811.841553,493.226318 814.927490,495.697601 
	C831.124329,508.668274 839.823242,525.550354 839.098999,546.436890 
	C838.796143,555.170837 836.704163,563.850159 835.319031,572.537354 
	C833.726013,582.528748 832.965149,592.673645 830.344971,602.477417 
	C824.691772,623.630005 813.047119,640.126648 792.917236,649.906921 
	C789.622986,651.507507 786.545959,653.644653 783.133301,654.888611 
	C779.113342,656.354126 778.420227,658.557007 779.450684,662.501648 
	C782.024475,672.353821 783.298950,682.307983 781.613098,692.570251 
	C779.660339,704.457581 773.694519,714.097595 765.456909,722.366394 
	C754.859131,733.004272 745.027771,744.236816 735.526184,755.876892 
	C720.917175,773.773865 702.190857,782.941101 678.413635,779.492188 
	C669.378540,778.181641 669.204041,778.381104 666.088928,786.949707 
	C658.662109,807.378052 645.763855,822.307617 624.433105,828.836670 
	C620.624512,830.002441 616.729736,830.958374 612.814880,831.690735 
	C603.591736,833.416382 594.945740,836.954163 586.189697,840.086792 
	C569.047119,846.219788 553.112244,843.165161 537.824219,834.364624 
	C532.318359,831.195312 527.332397,827.326538 522.760437,822.880371 
	C517.422607,817.689453 517.193909,817.607239 511.546234,822.600525 
	C504.345612,828.966919 496.278137,833.885132 487.550537,837.734802 
	C477.516022,842.160950 467.124786,843.408386 456.393585,840.509644 
	C440.665314,836.261047 424.776031,832.530579 409.237915,827.675171 
	C388.929291,821.329041 375.832520,807.134888 368.568726,787.342163 
	C368.396576,786.873108 368.198792,786.413574 368.018219,785.947510 
	C364.773895,777.575684 363.677521,776.554138 355.029358,778.740417 
	C339.360962,782.701416 325.070984,779.060303 311.127106,772.193909 
	C300.780304,767.098877 293.456787,758.758850 286.508484,749.471802 
M399.049591,539.509277 
	C408.178680,537.604309 416.952362,539.933472 423.464752,545.620422 
	C433.242340,554.158752 443.502808,561.093994 455.738525,565.559143 
	C460.594055,567.331055 463.191986,571.978210 461.692505,577.886169 
	C460.852783,581.194641 462.785919,583.721375 465.194794,585.643738 
	C469.930481,589.422913 475.160522,592.556213 481.208038,593.401550 
	C485.775848,594.040039 489.776855,595.927551 493.998352,597.416260 
	C501.027893,599.895325 504.473846,605.092529 504.812653,612.101624 
	C505.118683,618.433350 502.559601,623.677246 496.755524,627.088928 
	C491.847900,629.973816 488.669312,634.754822 488.571991,640.123779 
	C488.426819,648.129333 484.851593,652.577454 477.918671,655.838135 
	C471.334412,658.934875 464.121796,661.924255 460.057892,668.249390 
	C454.788086,676.451355 448.287476,683.049133 440.064575,688.107910 
	C437.363251,689.769775 436.587067,691.978088 437.102875,695.302490 
	C437.882996,700.330444 440.538147,704.665710 441.568665,709.553711 
	C442.218750,712.637146 444.177917,714.388062 447.286163,715.066162 
	C468.184662,719.625488 488.798065,725.208618 510.649811,724.242004 
	C538.430603,723.013184 565.290771,718.871643 591.457642,708.756348 
	C627.724487,694.736755 656.991455,672.491882 679.348511,640.706421 
	C700.085144,611.224731 711.404236,578.101440 718.479919,543.219055 
	C718.809021,541.596558 719.398682,539.588684 717.658447,538.155884 
	C716.016235,538.447571 715.609192,539.863037 714.928650,540.943237 
	C711.861328,545.811584 707.698120,549.004883 701.745544,548.216370 
	C695.975403,547.451965 694.548828,542.419678 692.903931,537.841736 
	C692.623108,537.059998 692.366028,536.260376 692.200439,535.448120 
	C691.274292,530.904358 688.722839,527.171082 686.067017,523.552979 
	C684.059265,520.817688 681.533813,518.721924 676.739929,520.242249 
	C682.198425,532.223938 684.183594,545.230957 691.698975,556.090393 
	C692.903809,557.831421 694.440918,557.451355 696.152527,557.189575 
	C705.435486,555.770142 707.915649,558.291077 705.895020,567.480530 
	C704.051758,575.863098 698.940918,582.883545 693.464539,588.826599 
	C685.983215,596.945435 681.673340,606.072754 679.583923,616.487366 
	C677.598145,626.385376 672.527039,634.373596 665.473328,641.252441 
	C661.264954,645.356445 657.620911,649.867615 654.595093,654.876221 
	C644.908875,670.909607 630.125000,680.426270 613.236755,687.206116 
	C611.111328,688.059326 608.731018,688.415894 606.432251,688.665771 
	C603.200378,689.017029 600.975281,687.628418 600.212402,684.273071 
	C598.541382,676.923706 597.616089,669.452881 598.876160,662.017700 
	C600.355286,653.290649 603.104614,644.929626 607.993958,637.371460 
	C612.689148,630.113586 614.521545,622.535217 610.163696,614.289734 
	C608.762756,611.638916 608.625244,608.586975 608.791992,605.508972 
	C609.133423,599.207275 604.849243,593.148560 598.787354,591.717468 
	C593.445129,590.456238 587.977661,589.850342 582.438171,590.709534 
	C575.806152,591.738159 569.175598,591.661743 562.572998,590.326416 
	C545.649475,586.903503 533.670166,575.598816 532.455261,560.041260 
	C531.792786,551.557556 533.387817,542.876282 534.218445,534.308655 
	C534.519958,531.198120 534.800293,527.657166 536.924927,525.332764 
	C546.314758,515.060181 555.522644,504.521667 566.433228,495.840424 
	C571.190186,492.055420 577.625122,491.922577 583.673950,491.760040 
	C593.305664,491.501221 603.020203,492.681580 612.536560,490.437073 
	C616.442993,489.515717 619.077454,490.860229 620.853638,494.151459 
	C622.627075,497.437561 625.363403,499.783417 628.754028,500.675140 
	C641.759705,504.095764 655.085693,502.735687 668.308105,502.748993 
	C669.823792,502.750519 671.298767,501.943481 671.589905,500.184967 
	C671.883545,498.411255 670.510742,497.521912 669.307373,496.620148 
	C668.776306,496.222137 668.130554,495.959808 667.650452,495.513672 
	C663.751831,491.891022 661.834412,487.518921 662.535339,482.109467 
	C663.191589,477.045044 667.763550,477.153656 671.048035,475.666809 
	C673.302490,474.646271 675.882385,474.330688 678.107544,473.263550 
	C680.015564,472.348480 682.047546,470.987854 681.668274,468.370728 
	C681.346558,466.150970 679.537842,465.113037 677.586670,464.403107 
	C675.709839,463.720276 673.819824,463.073761 671.934875,462.413391 
	C665.359375,460.109802 658.688965,463.202087 656.288452,469.862823 
	C655.278320,472.665771 654.786072,475.650909 653.914490,478.509308 
	C652.576904,482.896179 649.880310,483.739685 646.042480,481.075073 
	C642.584656,478.674316 639.853638,475.660828 637.439880,472.166016 
	C634.822754,468.376801 631.778748,464.735565 626.843567,463.288483 
	C625.832397,466.669800 627.714355,468.111420 629.203491,469.553162 
	C631.472900,471.750275 633.962036,473.719727 636.345642,475.799835 
	C638.343628,477.543427 639.174866,479.742645 637.554016,481.976318 
	C635.371643,484.983948 632.114807,486.318237 628.422241,486.291962 
	C624.943970,486.267242 624.359497,483.430298 623.486755,480.896393 
	C622.836487,479.008270 622.017334,477.178253 621.368896,475.289551 
	C619.941406,471.131134 617.400269,468.455017 612.717407,468.265472 
	C611.590515,468.219849 610.451721,467.770416 609.372131,467.364075 
	C600.207336,463.914276 597.358154,464.740326 591.531799,472.618286 
	C590.640320,473.823669 589.776245,475.049347 588.901123,476.266846 
	C584.629517,482.209839 578.349609,484.879578 571.550049,486.152405 
	C565.061218,487.367065 563.073730,486.023071 560.103088,480.058868 
	C557.940857,475.717712 557.965027,471.193054 558.474548,466.423401 
	C558.998718,461.516968 561.474609,459.214783 565.893127,457.627838 
	C570.693787,455.903625 575.190063,457.372131 579.844055,458.549896 
	C580.049072,454.870880 579.428162,452.143524 578.212708,449.560974 
	C574.171631,440.975037 570.076050,432.414764 566.034912,423.828857 
	C563.563477,418.577972 560.585632,413.522766 560.278687,407.471954 
	C560.176819,405.463165 560.207642,403.854065 562.363342,402.991821 
	C571.353821,399.395721 581.070312,405.773376 581.245911,415.443604 
	C581.303284,418.606140 581.058960,421.780701 581.242310,424.932922 
	C581.510681,429.544647 585.286987,433.573914 589.406738,433.472809 
	C593.793518,433.365082 594.954712,430.105560 595.762085,426.419952 
	C597.762878,417.286255 600.711975,415.146820 610.105042,415.735535 
	C611.924744,415.849548 613.718994,416.324036 615.537354,416.514618 
	C619.594666,416.939972 625.393188,414.212067 625.254211,411.220001 
	C624.995239,405.645020 625.579285,399.845947 623.638367,394.517578 
	C622.536377,391.492523 619.419006,390.747009 616.471069,391.968536 
	C613.593567,393.160919 614.196899,395.647797 615.030823,397.962006 
	C615.425537,399.057465 615.847595,400.146301 616.322327,401.209045 
	C617.436096,403.702667 618.525146,406.387909 616.545349,408.727966 
	C614.602295,411.024567 611.658752,410.523376 609.024292,410.111938 
	C604.254761,409.367004 600.661743,406.103333 596.541626,403.979584 
	C586.680969,398.896912 586.718506,398.827850 588.557556,388.014099 
	C588.640991,387.523468 588.678528,387.018463 588.675110,386.520569 
	C588.599792,375.573486 593.409973,367.288422 601.768188,360.359009 
	C610.980469,352.721588 622.351868,354.495758 627.832581,365.183044 
	C629.033447,367.524780 630.527466,368.894653 633.257324,368.637695 
	C636.353210,368.346252 638.667664,366.710358 639.953064,364.050201 
	C641.303711,361.254883 638.739929,359.884827 637.124573,358.329163 
	C636.050293,357.294586 634.794922,356.446442 633.608826,355.529999 
	C618.018188,343.483246 600.378967,335.235077 582.146240,328.222778 
	C557.079590,318.582092 530.909912,315.980927 504.237671,316.243988 
	C485.174866,316.432007 466.918518,320.100250 449.192719,326.832916 
	C447.444336,327.496979 445.182678,327.723022 444.676270,330.084076 
	C445.151611,331.638000 446.446381,332.155182 447.569214,332.826141 
	C452.273743,335.637421 453.643585,339.357117 452.807159,345.020813 
	C451.650848,352.850891 447.404236,357.997437 441.416138,362.322784 
	C436.827240,365.637390 432.093170,368.780304 427.740662,372.382568 
	C424.831757,374.790070 421.385162,377.863647 422.799072,382.011292 
	C424.333008,386.511017 429.199127,386.810883 433.283508,387.530365 
	C435.327667,387.890442 437.234772,386.956970 439.021271,386.089905 
	C442.672546,384.317871 446.613983,383.578552 450.527313,382.899261 
	C454.749664,382.166351 458.465637,383.509491 459.477295,388.041260 
	C461.477142,396.999390 464.835938,405.045013 471.645172,411.539825 
	C474.271118,414.044495 474.492493,417.344696 472.138916,420.613953 
	C465.491669,429.847504 455.308075,431.831207 445.911316,425.631683 
	C444.601410,424.767487 443.549377,423.144287 441.347565,423.895996 
	C440.198792,426.457764 440.470825,429.316803 440.278076,432.082336 
	C439.888092,437.678741 437.477081,441.537903 431.691803,442.834320 
	C427.350586,443.807129 423.918793,446.565002 420.320068,448.955017 
	C417.812408,450.620422 415.320496,452.595123 412.381317,453.068604 
	C403.727173,454.462769 399.700714,460.209442 397.339233,467.887787 
	C395.867920,472.671875 393.987061,477.312378 391.079407,481.438904 
	C386.233368,488.316467 383.825531,488.226868 379.307526,481.361847 
	C375.964111,476.281586 370.933380,473.398468 365.010773,473.636566 
	C358.723846,473.889252 353.536469,476.822113 350.972015,483.173187 
	C350.102600,485.326385 349.062836,487.443359 347.837494,489.412994 
	C345.804626,492.680786 346.488525,495.909668 348.102448,498.856537 
	C349.717682,501.805786 352.658691,501.366302 355.631775,501.097717 
	C364.755981,500.273376 368.607819,504.382019 366.947296,513.243347 
	C365.970734,518.454773 366.291840,523.520325 367.471466,528.572754 
	C369.406250,536.859375 378.978790,543.981689 385.441864,541.537537 
	C389.648315,539.946777 393.812988,539.582581 399.049591,539.509277 
M325.677155,604.895142 
	C342.712341,644.028748 370.722687,672.889343 407.851227,693.430542 
	C405.948608,680.184875 405.426697,667.317932 405.594299,654.361023 
	C405.761169,641.456726 401.232788,630.810547 389.882812,623.411621 
	C380.944092,617.584412 374.317383,609.542419 369.659760,599.809082 
	C364.194183,588.387268 363.106415,575.601501 375.764252,567.023560 
	C378.530121,565.149170 379.818726,561.979492 379.032593,558.668335 
	C378.208191,555.196045 374.973297,555.101196 372.130096,555.023071 
	C367.448120,554.894470 365.006775,552.451538 363.541077,548.125366 
	C361.783203,542.936768 359.537476,537.905334 357.338623,532.877808 
	C356.270172,530.434814 354.958405,527.552368 352.287994,526.963196 
	C345.420776,525.448181 340.700439,521.598816 337.527283,515.488953 
	C337.095337,514.657227 336.194427,513.956360 335.352142,513.468384 
	C328.814484,509.680542 326.092560,503.363037 323.682861,496.656616 
	C320.095917,486.673950 320.672974,476.362793 320.614685,466.067566 
	C320.603455,464.085388 321.294067,461.805450 319.164673,459.933502 
	C316.317047,463.125092 315.550964,466.906494 314.327759,470.464935 
	C305.206329,496.999969 306.705933,524.117065 309.675446,551.373596 
	C311.702118,569.975647 318.224762,587.157043 325.677155,604.895142 
M283.547516,395.891205 
	C291.009460,398.743256 298.530823,401.452087 305.905853,404.513519 
	C309.135315,405.854065 310.939850,405.334167 312.792603,402.280487 
	C323.179077,385.161804 336.491791,370.565857 352.049042,358.036560 
	C355.013824,355.648895 354.853516,353.837952 352.864227,350.997314 
	C345.319397,340.223663 338.017944,329.279785 330.516479,318.475281 
	C326.754700,313.057159 323.327271,307.422424 320.290344,301.802338 
	C317.707703,302.405701 316.926849,303.918549 316.212891,305.401337 
	C312.648926,312.803589 311.424133,320.526611 312.839722,328.691010 
	C314.139496,336.187500 315.492950,343.608246 315.616669,351.349121 
	C315.794495,362.474548 307.904053,367.117920 298.686127,367.319183 
	C292.858826,367.446411 287.003937,367.022614 281.201782,367.426208 
	C272.412689,368.037567 264.041656,369.965973 258.295197,377.641724 
	C256.031036,380.666046 256.028900,382.913177 259.842834,384.673950 
	C267.549194,388.231689 275.173523,391.967194 283.547516,395.891205 
M273.874115,631.379089 
	C281.230133,635.021851 282.129059,641.672180 281.773376,648.756958 
	C281.352203,657.146667 278.233521,664.933289 276.052582,672.931091 
	C273.878326,680.904419 274.936584,688.031189 282.111481,693.553894 
	C282.849579,693.073425 283.613312,692.726379 284.187653,692.180237 
	C295.406891,681.511169 306.556976,670.768738 317.838562,660.166321 
	C320.686737,657.489624 320.532410,655.271301 318.640381,651.972229 
	C310.042358,636.980286 300.522980,622.463318 294.654297,606.020508 
	C293.217407,601.994568 293.297058,596.409363 289.797058,594.371033 
	C286.352600,592.365112 281.434753,594.793518 277.224152,595.465393 
	C263.614166,597.637268 250.045090,600.078430 236.492386,602.589417 
	C231.851822,603.449158 231.107117,605.608826 233.703217,609.679932 
	C237.585602,615.768311 242.907333,620.169373 249.689774,622.664062 
	C257.491699,625.533875 265.347382,628.257507 273.874115,631.379089 
M234.712387,441.947845 
	C233.266968,441.058258 232.115112,438.831696 230.035553,440.463593 
	C228.274048,441.845917 228.412811,443.780762 228.773590,445.926025 
	C230.550247,456.490265 235.738297,465.225769 242.848099,472.975464 
	C246.228226,476.659729 249.612885,480.346222 252.266846,484.600311 
	C257.714905,493.332947 255.795181,502.910004 247.273590,508.636139 
	C243.555756,511.134399 239.500336,513.132141 235.586411,515.336243 
	C227.967300,519.626892 222.692200,525.728210 220.713699,534.419678 
	C219.649734,539.093567 220.540436,540.320557 225.096100,539.766907 
	C241.740067,537.743835 258.370972,535.613525 275.010681,533.555054 
	C278.927338,533.070496 280.850830,531.256104 280.698792,527.000488 
	C280.019257,507.979340 281.205994,489.123901 286.445801,470.695465 
	C287.322693,467.611481 286.265808,465.654022 283.226807,464.464386 
	C277.338623,462.159393 271.422913,459.882294 265.701447,457.203156 
	C255.479797,452.416809 244.467010,449.236755 234.712387,441.947845 
M458.345093,294.660278 
	C462.722473,293.669617 467.078461,292.565308 471.486176,291.735748 
	C473.724915,291.314392 474.615753,290.194641 474.634918,288.032898 
	C474.800323,269.380005 474.430023,250.723404 475.514069,232.076736 
	C475.800568,227.148926 473.382019,226.156616 469.268524,228.811081 
	C462.283325,233.318695 458.003448,239.975693 454.406555,247.239349 
	C451.435486,253.239258 449.955078,259.786804 447.317383,265.893494 
	C442.543732,276.945435 434.111389,280.409424 422.935455,275.954742 
	C416.104156,273.231812 409.946899,269.185730 403.458130,265.788910 
	C396.780334,262.293121 389.890198,259.428284 382.195343,259.232758 
	C380.224091,259.182648 378.052460,258.828094 376.790771,260.916351 
	C375.487549,263.073334 376.982635,264.735962 378.066376,266.368561 
	C387.464172,280.525269 396.966370,294.613495 406.259369,308.838440 
	C408.740509,312.636383 411.176422,313.489227 415.293091,311.162903 
	C428.555847,303.667969 442.642151,298.175598 458.345093,294.660278 
M550.032898,231.103470 
	C550.032776,235.594330 550.379700,240.117188 549.968811,244.570160 
	C548.619812,259.191376 549.866455,273.839752 549.228821,288.461426 
	C549.114075,291.091980 550.310974,292.328918 552.985840,292.675140 
	C573.094238,295.277893 592.296997,301.030548 610.468994,309.989990 
	C614.801941,312.126251 617.306396,311.468689 619.966370,307.521515 
	C628.889221,294.280853 638.115356,281.244934 647.135864,268.069366 
	C648.377258,266.256104 650.032776,264.460510 649.867065,261.856812 
	C646.113525,260.952606 642.750610,260.175568 638.914429,260.901642 
	C631.438904,262.316681 624.616089,265.177399 617.984131,268.690369 
	C612.699524,271.489624 607.738220,275.059113 601.889160,276.570648 
	C590.170227,279.599030 581.883057,277.663879 577.344299,265.704163 
	C574.108398,257.177460 570.825012,248.599991 565.639893,240.942932 
	C562.532349,236.354004 559.024231,232.165253 554.513367,228.922668 
	C552.635437,227.572693 550.490906,226.355148 550.032898,231.103470 
M717.057129,665.442200 
	C724.990295,673.757812 732.854980,682.140320 740.884521,690.361816 
	C745.164185,694.743774 747.001343,694.243713 749.152405,688.476807 
	C751.696777,681.655273 749.870239,675.007263 747.969727,668.483276 
	C746.531677,663.546936 744.140442,658.880127 742.809326,653.922546 
	C739.617920,642.036560 742.999268,635.093079 754.415894,630.545532 
	C761.972656,627.535522 769.929871,625.536621 777.511475,622.581238 
	C784.991516,619.665466 790.645752,614.490479 794.164856,607.164001 
	C792.030823,605.065002 789.562134,605.035706 787.374023,604.528687 
	C772.327026,601.042053 757.190613,597.924011 742.207886,594.186768 
	C737.192932,592.935791 735.168335,594.742432 733.746277,598.998047 
	C727.629944,617.302124 719.369080,634.474609 706.754395,649.293640 
	C704.891907,651.481506 704.987976,653.403442 707.023010,655.399231 
	C710.233093,658.547485 713.377319,661.762817 717.057129,665.442200 
M747.256287,394.636902 
	C753.323608,391.885101 759.378418,389.105194 765.462891,386.391846 
	C769.194397,384.727783 769.501404,382.213287 767.166565,379.262268 
	C763.045044,374.052948 757.560608,371.269836 750.990295,370.325195 
	C744.357178,369.371582 737.796021,369.658875 731.114502,370.008881 
	C718.226379,370.683990 704.290222,364.434418 710.036743,345.245636 
	C712.029480,338.591736 713.511108,331.692505 714.308899,324.799164 
	C715.093689,318.018127 713.450684,311.471863 709.134033,305.063477 
	C707.050964,307.591583 705.450134,309.463928 703.925598,311.396515 
	C694.743591,323.036438 685.583679,334.693787 676.406433,346.337524 
	C672.226074,351.641479 672.229553,351.972046 677.045044,356.536224 
	C691.555420,370.289246 703.776733,385.809082 712.715942,403.730896 
	C714.702454,407.713745 716.959473,408.347504 720.624573,406.677338 
	C729.260254,402.742004 737.916382,398.851593 747.256287,394.636902 
M417.599518,767.234131 
	C420.297852,757.980652 422.852417,748.681763 425.759155,739.494202 
	C427.081604,735.314087 426.250031,733.444519 421.831757,731.896362 
	C403.837250,725.591248 386.646545,717.573364 372.177124,704.819702 
	C369.231659,702.223450 367.730286,702.515808 365.413666,705.247498 
	C356.446899,715.820801 346.316956,725.171326 335.353119,733.668457 
	C332.044220,736.232849 328.475250,738.817139 326.689301,743.309204 
	C332.494141,747.553101 338.807983,747.930969 345.395081,747.358215 
	C353.408325,746.661377 360.933929,743.824036 368.740875,742.233154 
	C378.109955,740.323975 385.092041,743.721863 389.226196,752.351990 
	C391.323364,756.729858 392.201904,761.496155 393.401703,766.162354 
	C395.449432,774.126282 398.129700,781.771484 404.539703,787.497009 
	C407.635986,790.262695 409.887756,789.787415 411.259338,785.939880 
	C413.379730,779.991699 415.350647,773.990173 417.599518,767.234131 
M741.106689,470.676208 
	C745.460388,489.006287 748.037292,507.559204 747.249451,526.425537 
	C747.044006,531.346497 749.347900,532.814697 753.453308,533.495239 
	C769.162842,536.099365 784.855408,538.805969 800.559509,541.442993 
	C804.962830,542.182373 806.342834,540.669617 805.406677,536.094482 
	C803.916260,528.810608 799.755432,523.418274 793.422119,519.661560 
	C788.698059,516.859497 783.971375,514.057068 779.170044,511.391327 
	C773.730225,508.371094 771.291809,503.634705 770.487427,497.650848 
	C769.468323,490.070129 773.966248,485.064392 778.464355,480.163391 
	C784.786255,473.275421 791.140137,466.478333 794.687744,457.603546 
	C796.682007,452.614532 797.579407,447.567383 796.480652,441.871277 
	C795.299438,442.262726 794.461792,442.375427 793.806641,442.782196 
	C784.169556,448.765717 773.610535,453.004456 763.787781,458.604279 
	C756.427124,462.800507 748.231689,465.277924 741.106689,470.676208 
M634.900818,720.484619 
	C627.805481,724.561829 620.371277,727.884644 612.659485,730.619324 
	C610.085571,731.531982 607.428162,732.599060 608.773376,736.280334 
	C613.231018,748.479004 614.893555,761.480286 619.504395,773.634277 
	C621.495422,778.882446 623.117859,784.304504 626.741455,789.390991 
	C632.701477,784.249695 636.357361,778.158508 637.621460,770.709778 
	C638.565063,765.149170 638.975159,759.500000 640.585083,754.053650 
	C643.183960,745.261353 646.984924,742.421082 656.234497,742.724304 
	C662.108154,742.916870 667.640015,744.768860 673.243042,746.390320 
	C680.040466,748.357483 687.009460,748.911377 693.840393,746.419495 
	C696.972290,745.276978 698.068787,743.233154 695.382812,740.414368 
	C684.466919,728.958984 673.880432,717.184082 662.251892,706.420349 
	C660.226135,704.545166 658.500366,704.276001 656.156433,706.043945 
	C649.509338,711.057373 642.757446,715.938904 634.900818,720.484619 
M559.051941,808.229431 
	C560.517273,806.600403 559.886536,804.647461 559.503784,802.979248 
	C556.014343,787.769104 552.324036,772.605103 548.837646,757.394287 
	C547.865051,753.150879 545.611572,751.536499 541.343628,752.364563 
	C525.197998,755.497131 508.876526,754.547180 492.603912,754.141296 
	C489.416748,754.061829 488.171814,755.109558 487.287689,757.838501 
	C482.471069,772.705261 477.550354,787.538269 472.690643,802.391113 
	C472.227509,803.806641 471.875153,805.277161 472.682220,807.205933 
	C478.421173,808.483459 482.737549,805.047180 486.745911,801.839111 
	C492.320892,797.377197 497.214447,792.071045 502.724670,787.519653 
	C513.202759,778.864746 525.466736,779.761475 534.847534,789.633057 
	C537.827698,792.769104 540.427124,796.280396 543.518860,799.293579 
	C547.765686,803.432617 551.835022,808.037109 559.051941,808.229431 
z"/>
<path fill="#000000" opacity="1.000000" stroke="none" 
	d="
M432.896057,908.280762 
	C411.380371,915.981873 383.519135,899.690491 382.685181,873.803406 
	C382.197388,858.662170 390.649933,845.286194 404.863800,838.883545 
	C419.276245,832.391602 434.965454,835.338806 446.692627,845.582275 
	C466.703369,863.061401 460.573547,898.696167 432.896057,908.280762 
z"/>
<path fill="#000000" opacity="1.000000" stroke="none" 
	d="
M875.187134,534.860046 
	C897.439697,535.462524 912.376282,548.108154 913.644409,569.793457 
	C914.769714,589.037109 905.628967,606.442932 883.674988,611.012207 
	C865.521729,614.790283 846.452271,602.090149 841.837646,583.666077 
	C835.938843,560.115112 849.161621,537.675903 875.187134,534.860046 
z"/>
<path fill="#000000" opacity="1.000000" stroke="none" 
	d="
M751.807495,742.910522 
	C772.063354,716.444885 806.322144,725.013428 816.450317,750.094666 
	C822.644897,765.434753 818.603210,779.233887 808.377869,790.925720 
	C798.495361,802.225708 785.272461,804.897949 770.956360,800.580811 
	C756.327698,796.169556 747.677124,785.935913 745.000183,771.128540 
	C743.188965,761.109680 745.492249,751.591064 751.807495,742.910522 
z"/>
<path fill="#000000" opacity="1.000000" stroke="none" 
	d="
M524.795898,179.223175 
	C507.814819,184.059738 493.762268,180.228333 482.897980,166.629395 
	C473.369751,154.702820 472.459686,136.274902 480.377777,123.445122 
	C487.958923,111.161285 504.661438,104.507156 520.134216,107.606453 
	C535.633545,110.711075 546.849731,122.297112 549.426331,137.864410 
	C552.549988,156.737442 543.244202,172.599701 524.795898,179.223175 
z"/>
<path fill="#000000" opacity="1.000000" stroke="none" 
	d="
M213.638931,779.070923 
	C204.779572,754.833313 215.967438,732.874695 239.841400,727.034119 
	C261.215851,721.804993 285.781921,741.740051 285.257080,763.888367 
	C284.825470,782.101379 272.588165,797.403442 255.465576,801.140869 
	C238.629608,804.815735 221.773651,796.046082 213.638931,779.070923 
z"/>
<path fill="#000000" opacity="1.000000" stroke="none" 
	d="
M755.181396,219.649902 
	C752.344360,234.860184 744.838745,246.223190 730.365662,251.396164 
	C715.173889,256.825989 701.563232,252.571579 690.667847,241.303940 
	C679.631897,229.890869 678.205383,216.092285 683.615295,201.426086 
	C690.086304,183.883240 709.478943,176.395981 723.516174,179.057922 
	C743.240295,182.798309 755.509338,197.367752 755.297791,216.200226 
	C755.286560,217.199356 755.243103,218.198135 755.181396,219.649902 
z"/>
<path fill="#000000" opacity="1.000000" stroke="none" 
	d="
M865.359253,400.546509 
	C839.968018,415.614258 813.297302,397.061340 809.439758,375.793182 
	C806.839417,361.456665 810.832214,349.416809 821.579468,339.817383 
	C831.983704,330.524414 844.214233,328.225586 857.413086,332.436340 
	C877.395447,338.811218 887.160217,358.716248 880.645630,379.197754 
	C877.899658,387.830872 873.398071,395.234009 865.359253,400.546509 
z"/>
<path fill="#000000" opacity="1.000000" stroke="none" 
	d="
M130.594208,538.419922 
	C156.869781,524.138123 183.670181,538.012878 187.171295,567.346497 
	C188.666901,579.877197 178.736328,598.194763 167.230103,604.129578 
	C153.879913,611.015442 138.321899,608.480957 126.769150,598.984497 
	C106.996468,582.731262 111.175049,550.391846 130.594208,538.419922 
z"/>
<path fill="#000000" opacity="1.000000" stroke="none" 
	d="
M583.841003,898.096069 
	C565.531982,873.185974 579.981384,839.729187 610.542725,837.067261 
	C634.870056,834.948425 651.377808,856.109192 649.684509,875.560791 
	C648.144165,893.255127 638.846436,904.326172 622.873779,909.695190 
	C607.790283,914.765259 594.774170,909.803223 583.841003,898.096069 
z"/>
<path fill="#000000" opacity="1.000000" stroke="none" 
	d="
M274.285034,232.535187 
	C267.252655,218.800079 267.310608,205.339432 276.067505,193.098907 
	C284.525299,181.276413 296.939972,175.795517 311.386627,178.087708 
	C326.744568,180.524506 338.157654,189.010071 342.621155,204.582230 
	C348.646667,225.604065 333.876160,247.878540 312.227936,251.333435 
	C295.207123,254.049866 283.490692,246.314713 274.285034,232.535187 
z"/>
<path fill="#000000" opacity="1.000000" stroke="none" 
	d="
M212.862183,383.670593 
	C202.441956,399.671234 187.838699,403.869171 173.663391,400.601624 
	C157.922028,396.973053 145.876617,381.915039 145.295456,365.354797 
	C144.647537,346.891907 157.211472,329.869263 179.044312,326.828339 
	C195.394165,324.551117 214.701111,337.809082 217.900177,354.465485 
	C219.813950,364.429901 218.439880,374.359467 212.862183,383.670593 
z"/>
<path fill="#000000" opacity="1.000000" stroke="none" 
	d="
M473.950500,368.005676 
	C470.781555,362.096985 467.764587,356.659363 468.618042,349.825958 
	C469.447296,343.187012 471.179840,339.861328 477.591858,338.151367 
	C496.040680,333.231506 514.199341,335.081299 531.864624,341.824005 
	C537.031738,343.796295 538.676819,348.588837 536.783264,354.365784 
	C535.005798,359.788666 532.442444,364.819946 527.735107,368.430084 
	C524.566284,370.860291 521.623108,373.627472 518.280029,375.779419 
	C509.501862,381.429840 502.173706,388.630310 495.436340,396.483307 
	C492.665436,399.713043 490.337555,399.567566 487.020599,396.946869 
	C482.256439,393.182678 479.994324,388.852325 479.370667,382.660736 
	C478.877258,377.762573 475.953705,373.109192 473.950500,368.005676 
z"/>
<path fill="#000000" opacity="1.000000" stroke="none" 
	d="
M402.967346,522.964233 
	C393.955536,522.184021 387.572662,517.025146 381.216644,511.917023 
	C379.374664,510.436646 377.787689,508.132172 379.140900,505.791504 
	C380.829498,502.870697 384.001648,501.735352 387.289246,501.896667 
	C393.016113,502.177643 405.912109,512.610168 407.779602,518.160828 
	C409.231903,522.477478 405.725494,522.163330 402.967346,522.964233 
z"/>
<path fill="#000000" opacity="1.000000" stroke="none" 
	d="
M560.104065,429.895630 
	C555.680969,432.847748 552.081055,431.511505 549.322876,428.153107 
	C546.511414,424.729675 546.969116,420.632599 548.997559,417.015228 
	C550.759644,413.872925 553.936096,413.809082 556.811096,415.301117 
	C562.237122,418.117096 563.643005,424.201508 560.104065,429.895630 
z"/>
</svg>