<svg width="100" height="100" viewBox="0 0 100 100" fill="none" xmlns="http://www.w3.org/2000/svg">
  <circle cx="50" cy="50" r="48" stroke="black" stroke-width="4" fill="white"/>
  <g>
    <path d="M50 20 A30 30 0 1 1 49.9 20" fill="black"/>
    <path d="M30 50 A20 20 0 1 0 70 50 A20 20 0 1 0 30 50" fill="white"/>
    <path d="M50 25 Q60 40 50 55 Q40 40 50 25" fill="black"/>
    <path d="M50 55 Q55 65 60 60 Q65 55 60 50 Q55 45 50 55" fill="black"/>
    <path d="M50 55 Q45 65 40 60 Q35 55 40 50 Q45 45 50 55" fill="black"/>
  </g>
  <g>
    <circle cx="50" cy="12" r="4" fill="black"/>
    <circle cx="82" cy="50" r="4" fill="black"/>
    <circle cx="50" cy="88" r="4" fill="black"/>
    <circle cx="18" cy="50" r="4" fill="black"/>
    <circle cx="78" cy="22" r="4" fill="black"/>
    <circle cx="78" cy="78" r="4" fill="black"/>
    <circle cx="22" cy="78" r="4" fill="black"/>
    <circle cx="22" cy="22" r="4" fill="black"/>
  </g>
</svg>
